<?xml version="1.0" encoding="UTF-8"?><svg id="Layer_1" xmlns="http://www.w3.org/2000/svg" width="1000" height="1000" viewBox="0 0 1000 1000"><defs><style>.cls-1{fill:#fccb51;}.cls-2{fill:#e71c3d;}.cls-3{fill:#ffd86c;}.cls-4{fill:#ef434c;}.cls-5{fill:#ef3f4d;}.cls-6{fill:#ee273e;}.cls-7{fill:#edeef2;}.cls-8{fill:#d3d3dd;}.cls-9{fill:#ffda5f;}.cls-10{fill:#433851;}</style></defs><path class="cls-3" d="M966.42,374.23l-.16,336.92c-.16,11.33-7.56,22.67-22.51,31.38l-388.01,225.55c-15.28,8.87-35.48,13.14-55.69,12.98-19.22-.33-38.27-4.6-53.06-12.98L56.34,742.52c-15.11-8.87-22.67-20.37-22.67-31.7l.16-337.09c0,11.5,7.56,23,22.67,31.71l390.64,225.55c14.79,8.54,33.84,12.81,52.9,12.98,20.21.33,40.57-3.94,55.86-12.98l388.17-225.55c14.79-8.54,22.18-19.88,22.34-31.21Z"/><path class="cls-1" d="M447.19,631.03L56.58,405.51c-15.16-8.75-22.74-20.24-22.71-31.72l-.18,336.97c-.03,11.48,7.55,22.97,22.71,31.72l390.61,225.52c14.74,8.51,33.87,12.8,53.08,12.99l.02-336.98c-19.15-.22-38.22-4.5-52.92-12.98Z"/><path class="cls-9" d="M944,405.5l-388.07,225.52c-15.38,8.94-35.65,13.22-55.82,12.98l-.02,336.98c20.12.21,40.32-4.08,55.67-12.99l388.07-225.52c14.87-8.64,22.32-19.95,22.35-31.28l.18-336.97c-.03,11.33-7.49,22.64-22.36,31.28Z"/><path class="cls-4" d="M999.93,308.68v2.3l-.16,67.02c0,12.16-8.05,24.15-23.98,33.51l-415.94,241.81c-32.2,18.56-84.27,18.56-116.63,0L24.48,411.52C8.21,402.15,0,389.83,0,377.51l.33-67.02v-1.97c0,.25.11.48.12.73-.41-12.56,7.32-25.03,23.7-34.57L440.25,32.87c32.03-18.56,84.27-18.56,116.63,0l418.73,241.81c16.68,9.69,24.57,22.46,24.19,35.03.01-.34.12-.68.12-1.02Z"/><path class="cls-5" d="M975.65,274.71c32.36,18.68,32.44,48.9.38,67.53l-416.06,241.79c-32.15,18.68-84.23,18.68-116.59,0L24.6,342.25c-32.27-18.63-32.53-48.85-.38-67.53L440.28,32.92c32.06-18.63,84.32-18.63,116.59,0l418.79,241.79Z"/><path class="cls-2" d="M443.38,584.03L24.6,342.25C8.35,332.86.21,320.54.25,308.24l-.2,69.24c-.04,12.31,8.1,24.63,24.35,34.01l418.79,241.79c15.8,9.12,36.32,13.72,56.91,13.93l.02-69.25c-20.53-.24-40.98-4.82-56.74-13.92Z"/><path class="cls-6" d="M976.03,342.24l-416.06,241.79c-16.49,9.59-38.22,14.17-59.85,13.92l-.02,69.25c21.57.22,43.23-4.37,59.68-13.93l416.06-241.79c15.94-9.26,23.93-21.39,23.97-33.54l.2-69.24c-.04,12.15-8.03,24.27-23.97,33.54Z"/><path class="cls-2" d="M635.44,229.86c20.17,11.64,20.15,30.54.24,42.11l-198.12,115.14c-20.04,11.64-52.54,11.64-72.71,0-20.17-11.64-20.27-30.47-.24-42.11l198.12-115.14c19.92-11.57,52.54-11.64,72.71,0Z"/><path class="cls-6" d="M647.72,260.71c-2.46-4.11-6.57-8.05-12.32-11.33-20.21-11.66-52.73-11.66-72.61,0l-198.11,115.15c-5.75,3.29-9.69,7.06-11.99,11.33-6.4-10.51-2.3-22.51,11.99-30.88l198.11-115.15c19.88-11.5,52.4-11.66,72.61,0,14.46,8.38,18.56,20.53,12.32,30.88Z"/><path class="cls-7" d="M621.4,86.11l-62.55,36.11c-5.9,3.41-10.74.62-10.76-6.19l-.22-76.28-163.82,94.58c-5.9,3.41-10.71,11.77-10.69,18.58l.62,217.26c.04,12.97,14.08,21.06,25.32,14.57l203.31-117.38c11.92-6.88,19.25-19.62,19.21-33.38l-.42-147.88Z"/><path class="cls-8" d="M478.78,292.86c-2.34,0-4.6-.87-6.35-2.47l-40.4-37.1c-3.82-3.5-4.06-9.44-.56-13.26,3.51-3.82,9.45-4.05,13.26-.56l32.16,29.54,66.59-104.17c2.78-4.36,8.58-5.64,12.96-2.85,4.37,2.79,5.64,8.6,2.85,12.96l-72.61,113.58c-1.49,2.33-3.93,3.89-6.69,4.25-.4.05-.81.08-1.21.08Z"/><path class="cls-10" d="M484.19,284.69c-2.34,0-4.6-.87-6.35-2.47l-40.4-37.1c-3.82-3.5-4.06-9.44-.56-13.26,3.51-3.82,9.45-4.05,13.26-.56l32.16,29.54,66.59-104.17c2.78-4.36,8.58-5.64,12.96-2.85,4.37,2.79,5.64,8.6,2.85,12.96l-72.61,113.58c-1.49,2.33-3.93,3.89-6.69,4.25-.4.05-.81.08-1.21.08Z"/><path class="cls-8" d="M547.87,39.75l73.53,46.36-62.54,36.08c-5.95,3.44-10.8.68-10.82-6.16l-.16-76.28Z"/></svg>