<?xml version="1.0" encoding="UTF-8"?><svg id="Layer_1" xmlns="http://www.w3.org/2000/svg" width="1547.57" height="303.44" viewBox="0 0 1547.57 303.44"><defs><style>.cls-1{fill:#fccb51;}.cls-2{fill:#d3d3dd;}.cls-3{fill:#ffd86c;}.cls-4{fill:#edeef2;}.cls-5{fill:#ef434c;}.cls-6{fill:#ef3f4d;}.cls-7{fill:#fff;}.cls-8{fill:#ee273e;}.cls-9{fill:#433851;}.cls-10{fill:#e71c3d;}.cls-11{fill:#ffda5f;}</style></defs><path class="cls-3" d="M304.74,112.06l-.05,106.27c-.05,3.57-2.38,7.15-7.1,9.9l-122.38,71.14c-4.82,2.8-11.19,4.14-17.57,4.09-6.06-.1-12.07-1.45-16.74-4.09L17.69,228.23c-4.77-2.8-7.15-6.43-7.15-10l.05-106.32c0,3.63,2.38,7.25,7.15,10l123.21,71.14c4.66,2.69,10.67,4.04,16.69,4.09,6.37.1,12.8-1.24,17.62-4.09l122.43-71.14c4.66-2.69,7-6.27,7.05-9.84h0Z"/><path class="cls-1" d="M140.97,193.06L17.77,121.93c-4.78-2.76-7.17-6.38-7.16-10l-.06,106.29c0,3.62,2.38,7.25,7.16,10l123.2,71.13c4.65,2.68,10.68,4.04,16.74,4.1v-106.29c-6.03-.07-12.05-1.42-16.69-4.09h0Z"/><path class="cls-11" d="M297.67,121.92l-122.4,71.13c-4.85,2.82-11.24,4.17-17.61,4.09v106.29c6.34.07,12.71-1.29,17.55-4.1l122.4-71.13c4.69-2.73,7.04-6.29,7.05-9.87l.06-106.29c0,3.57-2.36,7.14-7.05,9.87h0Z"/><path class="cls-5" d="M315.31,91.39v.73l-.05,21.14c0,3.84-2.54,7.62-7.56,10.57l-131.19,76.27c-10.16,5.85-26.58,5.85-36.79,0L7.64,123.82C2.51,120.87-.08,116.98-.08,113.1l.1-21.14v-.62c0,.08.03.15.04.23-.13-3.96,2.31-7.89,7.48-10.9L138.78,4.39c10.1-5.85,26.58-5.85,36.79,0l132.07,76.27c5.26,3.06,7.75,7.08,7.63,11.05,0-.11.04-.21.04-.32h0Z"/><path class="cls-6" d="M307.66,80.67c10.21,5.89,10.23,15.42.12,21.3l-131.23,76.26c-10.14,5.89-26.57,5.89-36.77,0L7.68,101.97c-10.18-5.88-10.26-15.41-.12-21.3L138.79,4.41c10.11-5.88,26.6-5.88,36.77,0l132.09,76.26h0Z"/><path class="cls-10" d="M139.77,178.24L7.68,101.97C2.55,99.01-.01,95.13,0,91.25l-.06,21.84c-.01,3.88,2.55,7.77,7.68,10.73l132.09,76.26c4.98,2.88,11.46,4.33,17.95,4.39v-21.84c-6.47-.08-12.92-1.52-17.89-4.39h0Z"/><path class="cls-8" d="M307.78,101.97l-131.23,76.26c-5.2,3.02-12.06,4.47-18.88,4.39v21.84c6.8.07,13.63-1.38,18.82-4.39l131.23-76.26c5.03-2.92,7.55-6.75,7.56-10.58l.06-21.84c-.01,3.83-2.53,7.66-7.56,10.58h0Z"/><path class="cls-10" d="M200.35,66.52c6.36,3.67,6.36,9.63.08,13.28l-62.49,36.32c-6.32,3.67-16.57,3.67-22.93,0-6.36-3.67-6.39-9.61-.08-13.28l62.49-36.32c6.28-3.65,16.57-3.67,22.93,0Z"/><path class="cls-8" d="M204.22,76.26c-.78-1.3-2.07-2.54-3.89-3.57-6.37-3.68-16.63-3.68-22.9,0l-62.49,36.32c-1.81,1.04-3.06,2.23-3.78,3.57-2.02-3.32-.73-7.1,3.78-9.74l62.49-36.32c6.27-3.63,16.53-3.68,22.9,0,4.56,2.64,5.85,6.48,3.89,9.74Z"/><path class="cls-4" d="M195.92,21.18l-19.73,11.39c-1.86,1.08-3.39.2-3.39-1.95l-.07-24.06-51.67,29.83c-1.86,1.08-3.38,3.71-3.37,5.86l.2,68.53c.01,4.09,4.44,6.64,7.99,4.6l64.13-37.02c3.76-2.17,6.07-6.19,6.06-10.53l-.13-46.64h0Z"/><path class="cls-2" d="M150.93,86.4c-.74,0-1.45-.27-2-.78l-12.74-11.7c-1.2-1.1-1.28-2.98-.18-4.18,1.11-1.2,2.98-1.28,4.18-.18l10.14,9.32,21-32.86c.88-1.38,2.71-1.78,4.09-.9,1.38.88,1.78,2.71.9,4.09l-22.9,35.82c-.47.73-1.24,1.23-2.11,1.34-.13.02-.26.03-.38.03h0Z"/><path class="cls-9" d="M152.64,83.82c-.74,0-1.45-.27-2-.78l-12.74-11.7c-1.2-1.1-1.28-2.98-.18-4.18,1.11-1.2,2.98-1.28,4.18-.18l10.14,9.32,21-32.86c.88-1.38,2.71-1.78,4.09-.9,1.38.88,1.78,2.71.9,4.09l-22.9,35.82c-.47.73-1.24,1.23-2.11,1.34-.13.02-.26.03-.38.03h0Z"/><path class="cls-2" d="M172.73,6.56l23.19,14.62-19.73,11.38c-1.88,1.09-3.41.21-3.41-1.94l-.05-24.06h0Z"/><path class="cls-7" d="M452.26,223.87c-10.44,0-20.12-1.88-29.02-5.64-8.91-3.76-16.67-9.01-23.28-15.76-6.61-6.75-11.73-14.72-15.35-23.91-3.62-9.19-5.43-19.21-5.43-30.07s1.81-20.88,5.43-30.07c3.62-9.19,8.73-17.15,15.35-23.91,6.61-6.75,14.37-12.01,23.28-15.76,8.91-3.76,18.58-5.64,29.02-5.64s20.11,1.88,29.02,5.64c8.91,3.76,16.63,9.05,23.18,15.87,6.54,6.82,11.62,14.82,15.24,24.01,3.62,9.19,5.43,19.14,5.43,29.86s-1.81,20.85-5.43,29.96c-3.62,9.12-8.7,17.09-15.24,23.91-6.54,6.82-14.27,12.11-23.18,15.87-8.91,3.76-18.58,5.64-29.02,5.64ZM452.26,197.98c6.68,0,12.77-1.22,18.27-3.65,5.5-2.43,10.26-5.88,14.3-10.33,4.04-4.45,7.2-9.71,9.5-15.76,2.3-6.05,3.44-12.63,3.44-19.73s-1.15-13.68-3.44-19.73-5.46-11.31-9.5-15.76c-4.04-4.45-8.84-7.9-14.41-10.34-5.57-2.43-11.62-3.65-18.16-3.65s-12.77,1.22-18.27,3.65c-5.5,2.44-10.3,5.88-14.41,10.34-4.11,4.46-7.27,9.68-9.5,15.66-2.23,5.99-3.34,12.6-3.34,19.84,0,9.6,1.95,18.13,5.85,25.58,3.9,7.45,9.29,13.29,16.18,17.54,6.89,4.25,14.72,6.37,23.49,6.37ZM497.57,244.75l-55.54-73.49,21.3-14.2,54.7,72.87-20.46,14.82Z"/><path class="cls-7" d="M587.97,223.87c-7.94,0-14.79-1.81-20.57-5.43-5.78-3.62-10.23-8.7-13.36-15.24-3.13-6.54-4.7-14.41-4.7-23.59v-67.86h25.47v62.43c0,8.63,2.05,15.45,6.16,20.46,4.11,5.01,9.85,7.52,17.23,7.52,3.62,0,6.92-.59,9.92-1.77,2.99-1.18,5.6-2.85,7.83-5.01,2.22-2.16,3.97-4.77,5.22-7.83,1.25-3.06,1.88-6.33,1.88-9.81v-65.98h25.47v110.03h-24.85l-.42-22.97,4.59-2.5c-1.67,5.15-4.49,9.81-8.46,13.99s-8.66,7.48-14.09,9.92c-5.43,2.43-11.21,3.65-17.33,3.65Z"/><path class="cls-7" d="M694.25,88.36c-5.15,0-9.15-1.29-12-3.86-2.86-2.57-4.28-6.23-4.28-10.96,0-4.45,1.46-8.04,4.38-10.75,2.92-2.71,6.89-4.07,11.9-4.07s9.15,1.29,12.01,3.86c2.85,2.58,4.28,6.23,4.28,10.96,0,4.32-1.46,7.87-4.38,10.65-2.92,2.79-6.89,4.18-11.9,4.18ZM681.72,221.78v-110.03h25.47v110.03h-25.47Z"/><path class="cls-7" d="M786.95,223.87c-10.3,0-19.56-2.51-27.77-7.52-8.21-5.01-14.69-11.83-19.42-20.46-4.73-8.63-7.1-18.37-7.1-29.23s2.37-20.6,7.1-29.23c4.73-8.63,11.2-15.45,19.42-20.46,8.21-5.01,17.47-7.52,27.77-7.52,9.74,0,18.69,1.91,26.83,5.74,8.14,3.83,14.37,9.01,18.69,15.55l-13.99,17.12c-2.09-2.92-4.73-5.57-7.93-7.93-3.2-2.37-6.65-4.24-10.33-5.64-3.69-1.39-7.28-2.09-10.75-2.09-6.26,0-11.8,1.5-16.6,4.49-4.8,2.99-8.6,7.1-11.38,12.32-2.79,5.22-4.18,11.1-4.18,17.64s1.43,12.39,4.28,17.54c2.85,5.15,6.71,9.26,11.59,12.32,4.87,3.06,10.3,4.59,16.29,4.59,3.76,0,7.31-.59,10.65-1.77,3.34-1.18,6.58-2.89,9.71-5.12,3.13-2.23,6.02-5.01,8.66-8.35l13.99,17.12c-4.59,6.13-11.07,11.14-19.42,15.03-8.35,3.89-17.05,5.85-26.1,5.85Z"/><path class="cls-7" d="M852.09,221.78V67.28h25.47v154.51h-25.47ZM875.89,188.17l-4.8-24.22,52.2-52.2h34.03l-81.43,76.42ZM926.21,221.78l-40.3-48.86,17.96-15.45,54.08,64.31h-31.74Z"/><path class="cls-7" d="M978.83,221.78V75.63h63.47c9.88,0,18.17,1.43,24.85,4.28,6.68,2.85,11.8,6.96,15.35,12.32,3.55,5.36,5.32,11.94,5.32,19.73s-2.12,14.9-6.37,20.46c-4.25,5.57-10.2,9.47-17.85,11.69l-.21-4.38c6.4,1.53,12.01,4.07,16.81,7.62,4.8,3.55,8.56,7.9,11.27,13.05,2.71,5.15,4.07,11,4.07,17.54,0,7.24-1.22,13.61-3.65,19.1-2.44,5.5-5.92,10.09-10.44,13.78-4.53,3.69-9.92,6.44-16.18,8.25-6.26,1.81-13.23,2.71-20.88,2.71h-65.56ZM1008.89,134.72h29.65c3.89,0,7.2-.66,9.92-1.98,2.71-1.32,4.83-3.2,6.37-5.64,1.53-2.43,2.3-5.25,2.3-8.46,0-5.01-1.71-8.91-5.12-11.69-3.41-2.78-8.46-4.18-15.14-4.18h-27.98v31.95ZM1008.89,194.64h34.24c6.68,0,11.9-1.57,15.66-4.7,3.76-3.13,5.64-7.55,5.64-13.26,0-3.62-.91-6.68-2.71-9.19-1.81-2.51-4.38-4.38-7.73-5.64-3.34-1.25-7.31-1.88-11.9-1.88h-33.2v34.66Z"/><path class="cls-7" d="M1150.24,223.87c-6.96,0-13.26-1.39-18.9-4.18-5.64-2.78-10.09-6.65-13.36-11.59-3.27-4.94-4.91-10.75-4.91-17.43,0-5.71,1.04-10.75,3.13-15.14,2.09-4.38,5.18-8,9.29-10.86,4.1-2.85,9.26-5.04,15.45-6.58,6.19-1.53,13.39-2.3,21.61-2.3h32.57l-1.88,19.83h-31.11c-3.34,0-6.3.28-8.87.84-2.58.56-4.73,1.46-6.47,2.71-1.74,1.25-3.06,2.71-3.97,4.38-.91,1.67-1.36,3.62-1.36,5.85,0,2.37.63,4.46,1.88,6.26,1.25,1.81,2.96,3.2,5.12,4.18,2.16.98,4.63,1.46,7.41,1.46,4.04,0,7.9-.69,11.59-2.09,3.69-1.39,7-3.34,9.92-5.85,2.92-2.51,5.22-5.36,6.89-8.56l5.64,14.82c-2.92,4.73-6.47,8.91-10.65,12.53-4.18,3.62-8.7,6.47-13.57,8.56-4.87,2.09-10.02,3.13-15.45,3.13ZM1180.52,221.78v-69.11c0-5.85-1.77-10.33-5.32-13.47-3.55-3.13-8.32-4.7-14.3-4.7s-10.79,1.12-15.24,3.34c-4.46,2.23-8.63,5.71-12.53,10.44l-18.17-17.54c6.68-6.96,14.16-12.32,22.45-16.08,8.28-3.76,17.29-5.64,27.04-5.64,8.91,0,16.67,1.39,23.28,4.18,6.61,2.79,11.73,6.96,15.35,12.53,3.62,5.57,5.43,12.6,5.43,21.09v74.96h-27.98Z"/><path class="cls-7" d="M1235.43,221.78V67.28h29.65v154.51h-29.65Z"/><path class="cls-7" d="M1295.14,221.78V67.28h29.65v154.51h-29.65Z"/><path class="cls-7" d="M1403.71,223.87c-11.14,0-21.12-2.47-29.96-7.41-8.84-4.94-15.8-11.73-20.88-20.36-5.08-8.63-7.62-18.44-7.62-29.44s2.54-21.05,7.62-29.75c5.08-8.7,12.04-15.52,20.88-20.46,8.84-4.94,18.82-7.41,29.96-7.41s21.3,2.47,30.07,7.41c8.77,4.94,15.69,11.76,20.77,20.46,5.08,8.7,7.62,18.62,7.62,29.75s-2.54,20.81-7.62,29.44c-5.08,8.63-12,15.42-20.77,20.36-8.77,4.94-18.79,7.41-30.07,7.41ZM1403.71,198.19c5.43,0,10.3-1.39,14.62-4.18,4.31-2.78,7.69-6.54,10.13-11.27,2.43-4.73,3.58-10.09,3.45-16.08.14-6.26-1.01-11.8-3.45-16.6-2.44-4.8-5.81-8.56-10.13-11.28-4.32-2.71-9.19-4.07-14.62-4.07s-10.34,1.39-14.72,4.18c-4.38,2.79-7.8,6.54-10.23,11.28-2.44,4.73-3.58,10.23-3.45,16.49-.14,5.99,1.01,11.35,3.45,16.08,2.43,4.73,5.85,8.49,10.23,11.27,4.38,2.79,9.29,4.18,14.72,4.18Z"/><path class="cls-7" d="M1474.49,137.85v-26.52h73.08v26.52h-73.08ZM1495.16,221.78V83.35h29.65v138.43h-29.65Z"/></svg>